<?xml version="1.0" encoding="UTF-8" standalone="no"?>
<svg
   xmlns:dc="http://purl.org/dc/elements/1.1/"
   xmlns:cc="http://creativecommons.org/ns#"
   xmlns:rdf="http://www.w3.org/1999/02/22-rdf-syntax-ns#"
   xmlns:svg="http://www.w3.org/2000/svg"
   xmlns="http://www.w3.org/2000/svg"
   xmlns:sodipodi="http://sodipodi.sourceforge.net/DTD/sodipodi-0.dtd"
   xmlns:inkscape="http://www.inkscape.org/namespaces/inkscape"
   inkscape:version="1.0rc1 (09960d6, 2020-04-09)"
   sodipodi:docname="ec_logo.svg"
   id="svg4136"
   version="1.1"
   width="2349.9543"
   height="2353.8696"
   viewBox="0 0 2349.9543 2353.8696">
  <sodipodi:namedview
     inkscape:current-layer="svg4136"
     inkscape:window-maximized="0"
     inkscape:window-y="25"
     inkscape:window-x="0"
     inkscape:cy="1175.5424"
     inkscape:cx="1239.6152"
     inkscape:zoom="0.10497707"
     fit-margin-bottom="0"
     fit-margin-right="0"
     fit-margin-left="0"
     fit-margin-top="0"
     showgrid="false"
     id="namedview15"
     inkscape:window-height="480"
     inkscape:window-width="870"
     inkscape:pageshadow="2"
     inkscape:pageopacity="0"
     guidetolerance="10"
     gridtolerance="10"
     objecttolerance="10"
     borderopacity="1"
     bordercolor="#666666"
     pagecolor="#ffffff" />
  <metadata
     id="metadata4142">
    <rdf:RDF>
      <cc:Work
         rdf:about="">
        <dc:format>image/svg+xml</dc:format>
        <dc:type
           rdf:resource="http://purl.org/dc/dcmitype/StillImage" />
        <dc:title></dc:title>
      </cc:Work>
    </rdf:RDF>
  </metadata>
  <defs
     id="defs4140" />
  <path
     inkscape:connector-curvature="0"
     style="fill:#000000"
     d="m 1108.8467,2353.4256 c -5.775,-0.414 -16.8767,-0.8079 -24.6705,-0.8753 -9.926,-0.086 -18.4815,-0.8528 -28.5628,-2.5606 -21.3132,-3.6106 -33.2462,-8.6897 -48.0453,-20.4501 -25.05835,-19.9128 -40.94475,-57.4594 -64.57215,-152.6118 -12.1663,-48.9961 -28.8228,-122.6822 -71.6572,-317 -60.8237,-275.9267 -95.4132,-415.8693 -124.4497,-503.5 -10.0211,-30.2432 -17.7794,-49.9121 -25.6074,-64.9204 -2.9892,-5.7312 -5.435,-11.1895 -5.435,-12.1294 0,-0.9768 4.532,-5.2959 10.5764,-10.0797 30.5685,-24.1929 60.5993,-41.9773 83.4236,-49.4039 6.974,-2.2692 10.847,-2.8485 21.5729,-3.2268 11.9394,-0.4211 13.4396,-0.2741 17.3016,1.6962 5.3091,2.7085 9.3343,8.8821 11.5548,17.722 0.918,3.6545 3.212,16.4225 5.0979,28.3733 3.7059,23.4845 7.118,40.5507 10.79,53.9687 l 2.3262,8.5 6.7809,-6.5 c 10.3948,-9.9642 36.164,-38.0013 48.2533,-52.5 37.7507,-45.2743 58.7929,-82.7742 63.3057,-112.8184 3.69795,-24.6195 -11.8345,-47.426 -36.2141,-53.174 -22.2293,-5.241 -58.7855,2.8506 -106.2692,23.5224 -58.0637,25.2777 -140.7251,74.9254 -219.3917,131.7701 -12.2567,8.8567 -19.1078,13.1998 -20.5071,13 -2.6162,-0.3736 -5.8376,-9.4095 -8.2043,-23.0127 -2.4522,-14.0951 -1.4659,-44.5294 1.9056,-58.795 6.3685,-26.9474 19.3716,-52.6411 39.4707,-77.9924 9.9818,-12.5902 34.1366,-36.4158 47.6494,-47 5.9685,-4.675 14.7276,-11.8838 19.4646,-16.0194 54.0468,-47.186 119.0181,-92.87822 176.6128,-124.20592 64.1317,-34.8834 122.21595,-55.0642 176.50005,-61.3231 18.1178,-2.089 56.1979,-1.563 71,0.9807 44.8102,7.7005 81.8715,27.4206 112.6217,59.9254 19.2982,20.3994 30.3826,37.4829 36.7759,56.6793 5.6681,17.0188 6.972,26.49572 6.9434,50.46302 -0.037,30.8835 -4.3516,55.7433 -15.8613,91.3875 -31.2176,96.6766 -113.2157,229.1671 -224.221,362.2905 l -18.2413,21.8759 6.7413,-0.7769 c 3.7077,-0.4274 15.9663,-0.7423 27.2413,-0.6999 17.0311,0.064 22.033,0.4303 29.5594,2.1641 28.7674,6.6269 47.812,20.6699 59.679,44.0062 19.502,38.3501 49.0932,168.7425 81.725,360.1178 8.8862,52.1149 13.9078,72.2453 25.7273,103.1348 31.6529,82.723 79.3895,130.2375 142.3093,141.6472 31.1489,5.6485 86.2006,-2.5735 128.8022,-19.2367 6.4338,-2.5166 24.0728,-10.6082 39.1978,-17.9815 29.8671,-14.5599 36.7461,-16.9306 46.9997,-16.1969 17.5964,1.259 28.0247,12.6317 47.0108,51.2679 10.5164,21.4006 29.9895,68.7762 29.9895,72.9606 0,2.2824 -1.8308,3.4453 -18.75,11.9093 -62.6235,31.328 -133.1457,56.8126 -214.75,77.6042 -27.0473,6.8912 -64.903,15.4263 -77.8515,17.5526 -21.7051,3.5643 -53.1859,2.8725 -75.0015,-1.6481 -17.2028,-3.5648 -37.8024,-11.6998 -51.8353,-20.4704 -19.1688,-11.9806 -37.7639,-31.547 -50.4266,-53.0607 -13.1417,-22.3277 -20.1607,-42.643 -30.8696,-89.3475 -15.1661,-66.1441 -33.7472,-137.5691 -49.0835,-188.6755 -35.2517,-117.4722 -71.6348,-193.9872 -102.0352,-214.5838 -8.9181,-6.0422 -14.5083,-7.5847 -19.6468,-5.4215 -2.1621,0.9102 -3.75,2.2716 -3.75,3.2149 0,4.6759 18.402,80.7436 29.116,120.3555 40.6543,150.3082 90.641,285.6967 135.356,366.6104 4.8631,8.8 15.1428,26.575 22.8438,39.5 18.8601,31.6538 22.067,38.4492 22.5369,47.7547 0.6117,12.1129 -1.9401,14.261 -18.3527,15.4495 -15.7242,1.1387 -78.0619,1.6853 -90.5,0.7936 z m -190.50005,-23.6593 c -27.6997,-3.3414 -64.2862,-12.8745 -114,-29.7043 -62.7792,-21.2529 -113.666,-42.2734 -170.9604,-70.6211 -42.7569,-21.1549 -49.5273,-26.0425 -49.5359,-35.7602 0,-5.4787 3.2093,-9.115 19.9963,-22.6231 30.7237,-24.7226 53.5831,-51.4483 66.0937,-77.2724 25.9025,-53.4673 30.278,-133.3751 12.8328,-234.3574 -3.5554,-20.5804 -8.5416,-44.2231 -14.0242,-66.4975 -7.8778,-32.006 -7.083,-55.6527 2.647,-78.7508 4.3375,-10.2966 13.1109,-23.3016 21.2958,-31.567 13.9174,-14.0544 35.8512,-28.3078 48.7191,-31.6594 6.7023,-1.7457 19.201,-1.996 24.6131,-0.4928 9.4957,2.6374 19.03,12.8875 23.7689,25.5531 1.207,3.2262 4.6762,21.4253 8.0613,42.2889 39.4705,243.2748 79.7167,417.8007 119.5415,518.387 4.1893,10.5812 13.2892,30.8996 20.2218,45.152 12.517,25.7329 12.6079,25.9707 13.0362,34.1308 0.5165,9.8398 -0.6451,11.6119 -8.7507,13.3502 -4.8306,1.036 -16.7813,1.2612 -23.5563,0.444 z m 839.00005,-146.0366 c -21.3992,-2.8418 -41.6773,-21.6141 -57.487,-53.2182 -11.5227,-23.0343 -22.202,-59.5846 -28.9658,-99.1365 -5.6788,-33.2074 -8.1973,-57.3258 -12.995,-124.4472 -16.7086,-233.7592 -22.9048,-381.6696 -21.742,-519 0.6555,-77.4042 1.988,-107.8314 6.766,-154.5 7.3583,-71.8699 20.9199,-113.2464 40.3992,-123.2578 3.0271,-1.5557 6.5032,-2.175 14.0246,-2.4986 30.585,-1.3156 49.2642,12.9497 59.9138,45.7564 13.5675,41.7949 12.6113,105.1954 -3.4075,225.9416 -13.2048,99.5341 -16.3941,137.7149 -16.4608,197.0584 -0.048,42.7979 0.8933,56.2434 5.5241,78.9035 6.747,33.0147 19.9336,52.3534 37.324,54.737 32.0452,4.3923 47.2763,-71.569 45.2436,-225.6405 -0.7688,-58.2703 -2.0493,-95.4268 -4.618,-134 -3.5998,-54.0563 -4.2744,-73.654 -3.7175,-108 0.5649,-34.8456 1.344,-45.3664 4.8508,-65.5 4.9193,-28.2435 14.2376,-49.9349 26.5001,-61.6874 9.8266,-9.4178 47.5288,-27.9706 75.9611,-37.3796 18.3946,-6.0871 30.7895,-8.4333 44.5434,-8.4314 13.5454,0 17.147,1.3365 20.599,7.6334 4.7017,8.5764 6.4727,18.4744 6.5066,36.365 0.048,25.3301 -2.2717,39.4369 -19.7338,120 -15.9987,73.8116 -24.9946,119.6735 -33.4441,170.5 -28.2178,169.7407 -43.4517,352.7835 -48.0628,577.5 -1.1234,54.7465 -2.1705,62.8902 -11.588,90.1164 -13.9821,40.4227 -40.0663,73.572 -76.434,97.1368 -20.9741,13.5903 -32.9853,17.2419 -49.5,15.0487 z m -314.5,-73.7454 c -22.9411,-3.2962 -42.3123,-10.8721 -63.0472,-24.6574 -11.3346,-7.5357 -34.4305,-30.2165 -43.4567,-42.6757 -50.0657,-69.1073 -79.836,-178.5317 -90.9296,-334.2234 -6.1962,-86.9595 -7.3323,-218.6423 -2.5537,-296 8.8589,-143.4117 37.6379,-246.9778 88.9474,-320.0915 22.9794,-32.7447 49.0356,-57.236 90.0398,-84.6322 30.7964,-20.57602 57.2792,-33.15472 79.4405,-37.73222 9.8002,-2.0243 29.2695,-2.0311 37.0179,-0.013 23.9693,6.2432 38.61,27.4793 47.8934,69.46882 3.2898,14.8796 4.4518,26.2152 5.6383,55 2.8508,69.166 -1.8761,225.9615 -7.4424,246.869 -0.7862,2.953 -2.6085,7.7789 -4.0495,10.7243 -8.7041,17.7905 -30.5557,20.364 -60.1137,7.0795 -5.5369,-2.4885 -12.2761,-4.9169 -14.9758,-5.3965 -23.5351,-4.1807 -48.9689,23.6563 -66.897,73.218 -9.0622,25.0524 -11.0551,34.2875 -13.3816,62.011 -4.7378,56.4565 -6.1152,88.413 -6.1235,142.0683 -0.01,45.0018 0.902,67.3461 4.0077,98.5095 7.8481,78.7485 26.4046,125.8307 54.8742,139.2286 14.7874,6.959 31.3452,3.8772 53.6651,-9.9882 13.5309,-8.4056 17.3482,-9.6738 30.4464,-10.1149 15.2162,-0.5124 20.7963,1.4121 29.5863,10.2039 13.6872,13.69 22.1545,40.0235 25.4609,79.184 1.4542,17.2238 0.7791,79.708 -1.1097,102.7043 l -1.2978,15.8008 -6.5698,4.7338 c -32.4465,23.3788 -72.648,40.9786 -108.0699,47.3119 -14.8395,2.6533 -43.423,3.3599 -57,1.4092 z m -964.50005,-22.6445 c -70.9822,-9.6525 -147.6139,-64.4472 -224.4739,-160.5076 -51.2963,-64.1107 -111.1817,-159.8005 -155.771399,-248.9044 -51.7689,-103.4499 -71.8102,-200.5593 -59.202,-286.8609 14.6465,-100.2533 80.670099,-182.4663 177.447299,-220.9582 39.4369,-15.6855 69.6165,-20.6656 162.5,-26.8151 24.6056,-1.6291 83.0686,-1.6215 98.5,0.013 34.7031,3.6752 54.9144,10.5894 67.5731,23.1166 9.4861,9.3875 13.2012,18.2185 14.4988,34.4647 1.3924,17.4321 -2.0953,37.6965 -15.0663,87.5401 -9.8405,37.8138 -13.3364,52.3959 -17.0213,71 -5.3811,27.1675 -13.5455,45.8839 -25.0549,57.4367 -11.433,11.4759 -22.6986,15.5239 -43.2723,15.5485 -20.4341,0.024 -35.296,-3.7894 -76.6571,-19.6721 -48.8441,-18.7561 -63.4409,-20.5888 -75.7089,-9.5054 -5.0847,4.5937 -8.0303,9.834 -11.1517,19.8391 -8.0559,25.8222 -7.3196,71.8635 1.9113,119.5062 19.8248,102.3201 66.193,191.5036 120.937,232.6074 26.3147,19.758 52.2165,27.5783 70.5123,21.2891 23.0338,-7.918 38.5069,-28.5488 58.5371,-78.0495 8.6982,-21.4958 13.1221,-30.4963 17.0222,-34.6316 2.9359,-3.1129 3.6419,-3.3684 9.3088,-3.3684 5.7867,0 6.3499,0.218 10.0036,3.8717 8.9324,8.9324 30.2951,52.8044 44.1235,90.6151 35.3794,96.7377 37.3401,200.3421 4.7376,250.3326 -14.607,22.3973 -44.099,43.9695 -74.6504,54.6038 -18.2181,6.3413 -26.9573,7.7279 -51.0824,8.1048 -11.825,0.1848 -24.65,-0.092 -28.5,-0.616 z m 1468.77705,-57.3324 c -5.4578,-4.5924 -6.639,-9.5901 -5.9887,-25.3392 0.441,-10.6811 1.2325,-16.3009 3.555,-25.2404 8.9208,-34.337 23.3423,-69.3024 59.2697,-143.7011 36.73,-76.0607 55.8532,-119.9886 69.4319,-159.492 14.3026,-41.6095 20.8638,-77.2463 18.463,-100.2815 -3.4007,-32.629 -13.1955,-52.5285 -50.9567,-103.5254 -21.3414,-28.8219 -24.1738,-33.0501 -30.007,-44.7952 -11.8748,-23.9099 -16.9187,-48.8394 -15.7217,-77.7048 1.5199,-36.6531 12.2076,-66.9143 33.8709,-95.9025 21.4456,-28.6968 51.8983,-48.6013 86.8066,-56.7385 17.7196,-4.1305 53.3211,-3.4137 110,2.2148 67.9275,6.7456 113.4805,19.1878 122.1201,33.3556 4.1683,6.8355 1.6336,49.3683 -6.2297,104.536 -2.6177,18.3655 -4.3785,22.1137 -12.3904,26.3748 -5.8019,3.0857 -21.0595,2.9771 -31.5,-0.2243 -21.1554,-6.4868 -44.5506,-21.0618 -82.0307,-51.1041 -23.6848,-18.9846 -32.2143,-24.8267 -45.3762,-31.0792 -23.3208,-11.0784 -38.9591,-10.7623 -51.8822,1.0486 -16.3542,14.9468 -18.2161,41.5838 -4.5317,64.8289 7.7823,13.2194 24.2199,25.5958 39.3208,29.6058 3.3,0.8763 24.45,4.0731 47,7.1039 46.464,6.245 59.2804,8.3725 75.1888,12.4814 27.9647,7.2229 40.9159,16.4986 44.9395,32.1855 2.3374,9.1131 1.3298,17.1159 -5.0127,39.8133 -57.4572,205.615 -160.8288,389.2347 -298.5189,530.2612 -13.5521,13.8805 -25.6662,22.8653 -39.6298,29.3927 -7.0515,3.2962 -9.0636,3.7723 -17.5117,4.1432 -9.1468,0.4016 -9.6756,0.3091 -12.6782,-2.2175 z M 622.45725,1654.3244 c -30.6424,-4.472 -63.6528,-25.8899 -83.8391,-54.3966 -6.6687,-9.4174 -13.1849,-22.5637 -16.4678,-33.2234 -2.5257,-8.2009 -2.7024,-9.9902 -2.6939,-27.2766 0.015,-30.3026 5.5468,-63.8493 16.9803,-102.9706 20.0657,-68.6578 50.6695,-116.6258 82.9015,-129.9388 7.9398,-3.2794 24.4252,-4.1288 32.812,-1.6907 18.062,5.2508 38.4496,27.8668 54.1782,60.1001 29.7743,61.0177 39.3931,143.0375 23.8654,203.5 -10.4756,40.7902 -35.6876,72.6675 -65.1984,82.4347 -12.9969,4.3016 -28.2684,5.5445 -42.5382,3.4619 z M 2154.3467,1152.7425 c -48.9647,-4.273 -84.1853,-20.4193 -104.9798,-48.1263 -21.3617,-28.4629 -29.5837,-64.2551 -28.1834,-122.68842 0.9885,-41.2476 5.7185,-79.1929 18.2619,-146.5 24.6495,-132.2682 54.4582,-217.7238 90.7455,-260.1488 7.1132,-8.3164 15.6726,-15.7442 22.0843,-19.1648 6.0519,-3.2286 20.2659,-3.132 26.4961,0.1802 10.2591,5.4539 18.4273,16.3554 33.4428,44.6334 10.7351,20.217 15.604,31.4003 36.221,83.1966 7.9243,19.9082 17.6282,43.7582 21.5642,53 10.6009,24.8907 10.4491,29.7997 -1.1234,36.3329 -24.9438,14.0819 -32.8713,19.8686 -45.9259,33.5239 -11.0757,11.5854 -15.8579,18.5231 -22.6473,32.8549 -9.106,19.2221 -16.6203,46.5747 -20.629,75.0917 -2.0014,14.2373 -1.7139,42.3349 0.532,52 3.2178,13.847 8.3249,21.8058 15.3639,23.9427 3.5127,1.0665 10.4192,-2.6025 23.1433,-12.2946 25.604,-19.5027 47.0949,-31.6588 64.9182,-36.7202 8.1863,-2.3247 10.6702,-2.5925 21,-2.2645 10.7598,0.3416 12.1578,0.6153 17.1362,3.3543 7.3041,4.0186 11.1718,9.6209 14.4041,20.8643 3.9626,13.7835 5.4689,21.9878 6.7406,36.71432 3.0978,35.871 -4.6271,68.4875 -22.6281,95.5412 -20.8067,31.2706 -58.0516,51.1201 -105.6478,56.3047 -8.8219,0.961 -50.5891,1.219 -60.2894,0.3725 z M 71.245451,1119.9714 c -20.3192,-3.1564 -34.9072,-10.0049 -47.0459,-22.0863 -6.9399,-6.9071 -8.8962,-9.6533 -13.2022,-18.533 -9.6424002,-19.884 -11.60440023,-32.6061 -10.85220023,-70.3715 0.648,-32.53302 3.98190003,-58.32552 13.19500023,-102.08132 18.1729,-86.3081 48.3385,-170.8142 92.621999,-259.4715 34.4983,-69.067 70.8464,-128.1671 116.24,-189 52.5352,-70.4034 113.5335,-135.0333 174.9039,-185.3167 27.575,-22.5934 42.5707,-29.627 63.2406,-29.6622 6.207,-0.011 8.7216,0.4264 11.2198,1.9496 8.6118,5.2508 16.3183,22.1791 23.231,51.0293 7.2159,30.1162 12.2852,64.7954 22.1457,151.5 7.3485,64.6164 8.976,87.2927 7.0219,97.8338 -3.3358,17.994 -13.7118,28.292 -33.6184,33.3653 -6.143,1.5655 -10.4892,1.7305 -35.5,1.3475 -59.6469,-0.9135 -71.6161,-0.6581 -81.2268,1.7334 -23.8961,5.946 -37.8617,19.6646 -43.8782,43.1022 -5.3724,20.9287 0.1481,35.4764 15.4957,40.8341 8.4047,2.9341 27.8558,2.3116 51.1093,-1.6357 22.7504,-3.8618 44.6777,-5.0765 51,-2.8252 4.7633,1.6961 7.9445,5.9423 8.9451,11.9398 5.8395,35.0005 5.8654,61.3038 0.078,79.5274 -6.5998,20.783 -15.1836,24.0044 -74.0234,27.7801 -41.1613,2.6413 -69.4465,6.279 -85,10.9316 -7.8205,2.3394 -13.9034,6.7009 -16.3209,11.7023 -2.6995,5.5851 -13.5158,47.1665 -13.5536,52.1049 -0.056,7.2985 7.3647,13.2782 20.8745,16.8213 6.02,1.5789 12.3467,2.2362 25.562,2.6557 25.8098,0.8193 48.2617,-1.0391 124.438,-10.3002 54.6125,-6.6394 75.762,-8.4194 99.9353,-8.4108 22.6244,0.01 31.2115,0.9246 38.6507,4.1248 8.4437,3.6324 8.3646,3.4398 14.969,36.4739 20.9147,104.61252 25.6276,135.46682 26.1312,171.07762 l 0.3138,22.1838 -2.8301,2.9545 c -11.2659,11.7612 -65.8771,10.0759 -172.7283,-5.3305 -39.2086,-5.6533 -56.8959,-6.3052 -92.4416,-3.4071 -29.1428,2.3761 -57.7333,6.928 -122,19.4233 -51.4186,9.9973 -74.4147,13.8749 -94.7216,15.972 -17.5612,1.8134 -50.897099,1.8476 -62.379599,0.064 z M 1797.5475,1058.425 c -28.3263,-5.145 -48.9335,-15.9729 -69.2566,-36.3902 -35.2773,-35.44082 -54.7077,-90.86352 -61.5653,-175.60702 -0.7176,-8.8682 -1.2565,-32.1866 -1.2596,-54.5 0,-21.45 -0.1425,-38.325 -0.3103,-37.5 -0.1678,0.825 -4.5924,26.025 -9.8325,56 -10.3932,59.4531 -11.8538,66.496 -16.3372,78.7809 -7.5579,20.7091 -20.4727,33.3564 -40.9145,40.0671 -12.9162,4.2402 -30.4242,6.5402 -50.2248,6.598 -21.0143,0.061 -23.2513,-0.5543 -30.2783,-8.3323 -5.6842,-6.2917 -7.103,-12.7107 -6.4266,-29.0747 0.698,-16.886 4.1236,-30.2719 13.1471,-51.3739 2.3124,-5.4076 27.1531,-96.4802 73.553,-269.6651 38.5339,-143.825 70.5203,-262.5809 71.081,-263.902 l 1.0195,-2.4021 13.2334,0.5982 c 23.1181,1.0449 38.2636,5.6805 48.0586,14.7092 5.0646,4.6684 9.6123,12.8767 9.6123,17.3497 0,2.5255 -14.129,84.0588 -15.6546,90.3374 -0.4577,1.8836 0.4262,2.6728 6.3112,5.6345 26.2316,13.2017 46.9471,10.4661 65.8665,-8.698 23.5609,-23.8657 31.0132,-65.3679 18.4638,-102.8254 -12.3517,-36.8672 -41.0163,-63.5883 -79.4869,-74.0972 -16.8439,-4.6012 -20.4002,-4.8361 -86.5,-5.7119 -77.4453,-1.0261 -106.8448,-2.5012 -140.1409,-7.0315 -8.0525,-1.0956 -18.1775,-3.0041 -22.5,-4.2411 l -7.8591,-2.249 0.1897,-12.4854 c 0.213,-14.0242 1.7065,-36.3499 3.8788,-57.9854 6.6975,-66.703599 19.2987,-109.391398 35.0098,-118.598698 7.7024,-4.5139 12.9668,-3.3865 55.4217,11.8696 83.5372,30.018799 175.6414,76.239798 246.3911,123.647498 5.5599,3.7255 13.7089,8.9452 18.1089,11.5992 37.3498,22.529 67.5035,60.4515 82.2831,103.4824 8.053,23.4464 11.1157,41.6068 11.9122,70.6343 0.8647,31.5152 -1.8638,56.11 -9.8031,88.3657 -12.0541,48.9733 -27.233,80.694 -48.8089,102 -15.8752,15.6767 -27.3068,20.9253 -47.4374,21.7799 -7.4086,0.3145 -14.5339,0.029 -19,-0.7625 -12.8809,-2.2815 -27.6658,-8.5261 -40.1459,-16.9564 l -6,-4.053 -0.7107,4.0714 c -1.112,6.3698 -4.6254,42.8065 -5.7615,59.7501 -1.3071,19.4948 -1.3256,70.5482 -0.032,88.1705 8.9368,121.7379 50.566,208.9674 127.8047,267.8015 5.2721,4.0159 15.6862,11.3972 23.1425,16.403 27.7055,18.60002 30.0569,20.82082 30.0569,28.38692 0,9.441 -18.5731,24.7401 -36.2856,29.8893 -3.1246,0.9083 -9.176,2.0517 -13.4477,2.5408 -4.2717,0.4892 -12.7167,1.8433 -18.7667,3.0092 -16.5299,3.1855 -54.6747,3.7137 -69.7992,0.9665 z M 1666.509,748.17778 c -0.2774,-0.6875 -0.5044,-0.125 -0.5044,1.25 0,1.375 0.227,1.9375 0.5044,1.25 0.2774,-0.6875 0.2774,-1.8125 0,-2.5 z M 658.85375,1017.8348 c -11.4614,-4.9703 -16.5931,-19.04041 -23.4906,-64.40702 -1.9652,-12.925 -4.8859,-30.925 -6.4906,-40 -8.2338,-46.5641 -35.1606,-219.5171 -76.443,-491 -33.6375,-221.208 -33.7926,-222.2686 -33.1189,-226.4909 3.2883,-20.6113 53.1041,-52.7517 153.2688,-98.886999 28.8204,-13.2745 32.061,-14.0327 36.6523,-8.5763 2.9273,3.4789 5.8588,12.259999 7.4963,22.454199 5.1259,31.9125 5.3256,106.9563 0.6145,231 -5.9364,156.3078 -6.4668,173.5646 -7.1454,232.5 -1.1531,100.1413 3.3,157.2971 14.581,187.1448 3.9969,10.5751 11.1926,17.7944 16.4262,16.4799 1.1783,-0.296 10.0173,-5.4469 19.6423,-11.4465 28.1589,-17.5525 49.0333,-29.4669 72,-41.095 48.3051,-24.457 75.919,-33.4223 103,-33.4406 15.5419,-0.011 22.1414,1.8129 27.8391,7.6913 7.4981,7.7362 29.696,76.7031 33.2262,103.2314 1.9283,14.4902 0.055,24.5973 -5.8333,31.4768 -4.5159,5.2758 -9.3587,7.6365 -20.5428,10.014 -30.4751,6.4785 -69.9503,20.2472 -99.8517,34.8277 -46.0753,22.4672 -86.4368,51.7665 -145.1221,105.3471 -14.2674,13.0263 -27.8433,23.63552 -36.0916,28.20462 -11.3776,6.3025 -23.1422,8.2129 -30.6167,4.9715 z M 1937.833,967.26308 c -12.2858,-6.1393 -30.6854,-27.3093 -48.907,-56.2709 -11.8493,-18.8334 -14.7816,-30.0937 -15.7716,-60.5644 -1.7412,-53.59 11.4347,-136.4666 39.7453,-250 18.5439,-74.3659 48.2514,-177.0777 73.3203,-253.5 8.5606,-26.0971 8.4538,-25.9918 17.5098,-17.2551 3.0893,2.9804 11.0793,10.2076 17.7556,16.0605 32.9449,28.8816 47.395,52.2602 55.3943,89.6221 2.0337,9.4984 2.1755,12.206 1.6745,31.9748 -0.3921,15.4686 -1.261,26.422 -3.062,38.5977 -12.1268,81.9836 -35.3091,184.3889 -88.6267,391.5 -13.9733,54.279 -15.2064,58.4305 -19.1008,64.3102 -4.1603,6.2807 -8.9337,8.6898 -17.2184,8.6898 -5.1621,0 -7.5893,-0.6042 -12.7133,-3.1647 z m -520.9863,-11.8967 c -6.6994,-0.9957 -24.1657,-6.9921 -32.4341,-11.1351 -19.7765,-9.9091 -30.5343,-23.2244 -30.5561,-37.8203 -0.014,-9.0198 2.6478,-40.2654 5.0665,-59.4832 6.3669,-50.589 20.1173,-130.986 38.9096,-227.5 14.2775,-73.3273 17.0661,-92.8346 15.0116,-105.0149 -0.6446,-3.8215 -2.162,-8.4191 -3.3721,-10.2167 -4.282,-6.3613 -3.4644,-6.2652 -53.6254,-6.2997 -49.4188,-0.034 -53.6934,-0.4107 -68.8457,-6.0654 -23.8058,-8.8843 -29.2479,-25.212 -22.1287,-66.3923 9.0013,-52.0674 17.3772,-73.0034 36.2407,-90.5861 17.7614,-16.5554 42.9549,-25.3609 78.4581,-27.4225 21.8316,-1.2677 72.3049,-1.264 93.2756,0.01 83.63,5.0681 127.5038,21.4931 139.1279,52.0851 4.0015,10.5313 3.4063,29.6543 -1.7558,56.4057 -5.7667,29.8849 -21.9146,91.5247 -26.5343,101.2867 -3.617,7.6433 -12.9443,17.8648 -19.6148,21.4953 -14.4362,7.8572 -39.1361,7.301 -59.9356,-1.3497 -6.3864,-2.6561 -9.476,-2.0724 -13.9088,2.6277 -3.9829,4.223 -6.9196,11.8666 -8.8813,23.1155 -1.9988,11.4624 -1.9254,25.3421 0.943,178.3244 2.4927,132.9476 2.4682,135.4753 -1.5019,155.1884 -8.9173,44.278 -30.1354,63.7744 -63.9384,58.7503 z m -115.292,-85.2523 c -7.8564,-15.1345 -26.6381,-30.5719 -47.1229,-38.7322 -12.5693,-5.0071 -24.1931,-7.4974 -53.0851,-11.3731 -59.4621,-7.9764 -76.351,-11.1641 -96.9341,-18.296 -17.9488,-6.2191 -29.0729,-12.8782 -39.2115,-23.4726 -14.4043,-15.0518 -21.8688,-32.3612 -25.9567,-60.1908 -2.2927,-15.6082 -1.471,-58.1003 1.5106,-78.1216 11.0291,-74.0588 39.1425,-198.1915 66.538,-293.7931 55.6334,-194.1433 115.7302,-311.599298 174.5537,-341.155798 8.0409,-4.04030003 15.239,-4.95910003 39,-4.97860002863 C 1358.874,-0.03071803 1379.0311,2.487382 1409.0964,11.025382 c 16.8386,4.7819 23.6157,8.1467 31.3319,15.5562 18.2797,17.553 19.861,39.0204 6.3164,85.748998 -11.5873,39.976 -48.8896,145.3279 -53.0105,149.7161 -2.8305,3.0142 -11.2052,7.38 -17.2377,8.9862 -7.6065,2.0253 -20.9394,1.7499 -30.2398,-0.6246 -4.3505,-1.1107 -13.329,-4.6955 -19.9523,-7.9662 -13.7983,-6.8138 -23.5417,-9.5067 -30.9052,-8.5415 -44.9818,5.8963 -81.9493,78.4532 -102.4572,201.095 -11.6808,69.8544 -14.0334,118.7333 -7.0363,146.1907 6.9969,27.4565 21.3921,39.2481 47.9011,39.2377 8.783,0 19.4976,-1.342 56.0399,-7.0014 7.425,-1.1499 19.5787,-2.3566 27.0083,-2.6816 l 13.5083,-0.5909 3.2855,2.7646 c 7.5721,6.3715 10.111,17.3118 10.163,43.7915 0.077,39.4524 -9.6304,98.972 -28.3346,173.7216 -5.8796,23.4974 -6.2328,24.5115 -8.6305,24.7823 -2.117,0.2391 -2.9277,-0.5415 -5.292,-5.096 z m -441.70805,-238.755 c -64.569,-5.9998 -99.659,-51.9583 -106.0762,-138.9313 -5.6355,-76.3765 16.6284,-216.8287 48.0302,-303 37.6727,-103.379399 91.3579,-162.171898 168.546,-184.580298 14.3739,-4.17280003 44.13935,-6.0136 64.00005,-3.95790003 26.2905,2.72130003 49.388,27.80070003 58.4968,63.51620003 7.9825,31.299199 6.6127,76.075298 -4.5896,150.021998 -8.1694,53.9262 -18.9902,97.4015 -29.3379,117.8715 l -3.2208,6.3716 -4.6742,-0.6188 c -2.5709,-0.3402 -15.6993,-0.9065 -29.1743,-1.2583 -78.25645,-2.0429 -130.86395,13.5548 -145.78065,43.223 -3.921,7.7984 -10.8253,29.1686 -13.8638,42.911 -3.3543,15.1709 -4.1575,33.3428 -1.9683,44.5315 4.8359,24.715 22.2728,43.9485 41.4171,45.6845 20.5389,1.8624 55.6164,-17.9712 94.1956,-53.2602 10.53285,-9.6346 15.38945,-12.4011 21.82695,-12.4338 5.5725,-0.028 9.336,3.533 11.6917,11.0635 2.3043,7.3659 3.0735,33.4825 1.5482,52.5624 -1.9303,24.146 -8.7493,71.7286 -11.0459,77.0773 -1.1004,2.5628 -15.5076,10.0736 -36.73695,19.1517 -44.7107,19.1193 -87.1924,27.408 -123.284,24.0544 z m 100.5,-367.2877 c 4.95,-1.3595 12.0945,-3.6368 15.8767,-5.0606 9.9825,-3.7579 28.63605,-13.6724 30.18935,-16.0458 0.7333,-1.1204 1.8812,-6.1566 2.551,-11.1914 2.1205,-15.9415 -2.1655,-27.333 -12.37455,-32.8894 -16.7073,-9.0933 -40.4134,3.343 -58.8787,30.8879 -6.2054,9.2568 -19.3139,34.539 -18.388,35.4649 3.0028,3.0028 28.4827,2.2788 41.0242,-1.1656 z"
     id="path4170" />
  <path
     inkscape:connector-curvature="0"
     style="fill:#000000"
     d=""
     id="path4168" />
</svg>
